<mxfile host="Electron" agent="Mozilla/5.0 (Windows NT 10.0; Win64; x64) AppleWebKit/537.36 (KHTML, like Gecko) draw.io/25.0.1 Chrome/128.0.6613.186 Electron/32.2.6 Safari/537.36" version="25.0.1">
  <diagram id="C5RBs43oDa-KdzZeNtuy" name="Page-1">
    <mxGraphModel dx="2067" dy="1343" grid="1" gridSize="10" guides="1" tooltips="1" connect="1" arrows="1" fold="1" page="1" pageScale="1" pageWidth="827" pageHeight="1169" math="0" shadow="0">
      <root>
        <mxCell id="WIyWlLk6GJQsqaUBKTNV-0" />
        <mxCell id="WIyWlLk6GJQsqaUBKTNV-1" parent="WIyWlLk6GJQsqaUBKTNV-0" />
        <mxCell id="WIyWlLk6GJQsqaUBKTNV-4" value="" style="rounded=0;html=1;jettySize=auto;orthogonalLoop=1;fontSize=11;endArrow=block;endFill=0;endSize=8;strokeWidth=1;shadow=0;labelBackgroundColor=none;edgeStyle=orthogonalEdgeStyle;exitX=0;exitY=0.5;exitDx=0;exitDy=0;entryX=0.5;entryY=0;entryDx=0;entryDy=0;" parent="WIyWlLk6GJQsqaUBKTNV-1" source="WIyWlLk6GJQsqaUBKTNV-6" target="-VE9CdMXzi8puVVyXun2-33" edge="1">
          <mxGeometry x="-1" y="-85" relative="1" as="geometry">
            <mxPoint x="25" y="-60" as="offset" />
            <mxPoint x="120" y="795" as="targetPoint" />
          </mxGeometry>
        </mxCell>
        <mxCell id="-VE9CdMXzi8puVVyXun2-0" value="TAK" style="edgeLabel;html=1;align=center;verticalAlign=middle;resizable=0;points=[];" parent="WIyWlLk6GJQsqaUBKTNV-4" vertex="1" connectable="0">
          <mxGeometry x="-0.532" relative="1" as="geometry">
            <mxPoint as="offset" />
          </mxGeometry>
        </mxCell>
        <mxCell id="WIyWlLk6GJQsqaUBKTNV-6" value="Czy wersja pliku &lt;br&gt;pokrywa się z tą przechowywaną &lt;br&gt;na serwerze ?" style="rhombus;whiteSpace=wrap;html=1;shadow=0;fontFamily=Helvetica;fontSize=12;align=center;strokeWidth=1;spacing=6;spacingTop=-4;" parent="WIyWlLk6GJQsqaUBKTNV-1" vertex="1">
          <mxGeometry x="140" y="480" width="170" height="140" as="geometry" />
        </mxCell>
        <mxCell id="-VE9CdMXzi8puVVyXun2-9" value="Przejście do sekcji rozwiązywania konfiliktów" style="rounded=1;whiteSpace=wrap;html=1;fontSize=12;glass=0;strokeWidth=1;shadow=0;" parent="WIyWlLk6GJQsqaUBKTNV-1" vertex="1">
          <mxGeometry x="460" y="680" width="120" height="50" as="geometry" />
        </mxCell>
        <mxCell id="-VE9CdMXzi8puVVyXun2-24" value="Przejście do magzynu" style="rounded=1;whiteSpace=wrap;html=1;fontSize=12;glass=0;strokeWidth=1;shadow=0;" parent="WIyWlLk6GJQsqaUBKTNV-1" vertex="1">
          <mxGeometry x="160" y="160" width="120" height="40" as="geometry" />
        </mxCell>
        <mxCell id="-VE9CdMXzi8puVVyXun2-25" value="Wspólna praca na danym pliku &lt;br&gt;w magazynie" style="rounded=1;whiteSpace=wrap;html=1;fontSize=12;glass=0;strokeWidth=1;shadow=0;" parent="WIyWlLk6GJQsqaUBKTNV-1" vertex="1">
          <mxGeometry x="160" y="80" width="120" height="50" as="geometry" />
        </mxCell>
        <mxCell id="-VE9CdMXzi8puVVyXun2-26" value="" style="rounded=0;html=1;jettySize=auto;orthogonalLoop=1;fontSize=11;endArrow=block;endFill=0;endSize=8;strokeWidth=1;shadow=0;labelBackgroundColor=none;edgeStyle=orthogonalEdgeStyle;" parent="WIyWlLk6GJQsqaUBKTNV-1" edge="1">
          <mxGeometry relative="1" as="geometry">
            <mxPoint x="219.76" y="130" as="sourcePoint" />
            <mxPoint x="220" y="160" as="targetPoint" />
            <Array as="points">
              <mxPoint x="220" y="150" />
              <mxPoint x="220" y="150" />
            </Array>
          </mxGeometry>
        </mxCell>
        <mxCell id="-VE9CdMXzi8puVVyXun2-27" value="Wybór pliku" style="rounded=1;whiteSpace=wrap;html=1;fontSize=12;glass=0;strokeWidth=1;shadow=0;" parent="WIyWlLk6GJQsqaUBKTNV-1" vertex="1">
          <mxGeometry x="160" y="240" width="120" height="40" as="geometry" />
        </mxCell>
        <mxCell id="-VE9CdMXzi8puVVyXun2-29" value="" style="rounded=0;html=1;jettySize=auto;orthogonalLoop=1;fontSize=11;endArrow=block;endFill=0;endSize=8;strokeWidth=1;shadow=0;labelBackgroundColor=none;edgeStyle=orthogonalEdgeStyle;entryX=0.5;entryY=0;entryDx=0;entryDy=0;exitX=0.5;exitY=1;exitDx=0;exitDy=0;" parent="WIyWlLk6GJQsqaUBKTNV-1" source="-VE9CdMXzi8puVVyXun2-24" target="-VE9CdMXzi8puVVyXun2-27" edge="1">
          <mxGeometry relative="1" as="geometry">
            <mxPoint x="229.76" y="140" as="sourcePoint" />
            <mxPoint x="230" y="170" as="targetPoint" />
          </mxGeometry>
        </mxCell>
        <mxCell id="-VE9CdMXzi8puVVyXun2-33" value="Zmiany zostają zapisane" style="rounded=1;whiteSpace=wrap;html=1;fontSize=12;glass=0;strokeWidth=1;shadow=0;" parent="WIyWlLk6GJQsqaUBKTNV-1" vertex="1">
          <mxGeometry x="10" y="590" width="120" height="40" as="geometry" />
        </mxCell>
        <mxCell id="-VE9CdMXzi8puVVyXun2-44" value="" style="rounded=0;html=1;jettySize=auto;orthogonalLoop=1;fontSize=11;endArrow=block;endFill=0;endSize=8;strokeWidth=1;shadow=0;labelBackgroundColor=none;edgeStyle=orthogonalEdgeStyle;exitX=0.5;exitY=1;exitDx=0;exitDy=0;entryX=0.5;entryY=0;entryDx=0;entryDy=0;" parent="WIyWlLk6GJQsqaUBKTNV-1" source="-VE9CdMXzi8puVVyXun2-33" target="YKM-TjGu_FODjCgSOmCp-7" edge="1">
          <mxGeometry x="-1" y="-85" relative="1" as="geometry">
            <mxPoint x="25" y="-60" as="offset" />
            <mxPoint x="-80" y="660" as="sourcePoint" />
            <mxPoint x="70" y="700" as="targetPoint" />
          </mxGeometry>
        </mxCell>
        <mxCell id="YKM-TjGu_FODjCgSOmCp-2" value="Wprowadzenie własnych zmian" style="rounded=1;whiteSpace=wrap;html=1;fontSize=12;glass=0;strokeWidth=1;shadow=0;" vertex="1" parent="WIyWlLk6GJQsqaUBKTNV-1">
          <mxGeometry x="160" y="320" width="120" height="40" as="geometry" />
        </mxCell>
        <mxCell id="YKM-TjGu_FODjCgSOmCp-3" value="" style="rounded=0;html=1;jettySize=auto;orthogonalLoop=1;fontSize=11;endArrow=block;endFill=0;endSize=8;strokeWidth=1;shadow=0;labelBackgroundColor=none;edgeStyle=orthogonalEdgeStyle;entryX=0.5;entryY=0;entryDx=0;entryDy=0;exitX=0.5;exitY=1;exitDx=0;exitDy=0;" edge="1" parent="WIyWlLk6GJQsqaUBKTNV-1">
          <mxGeometry relative="1" as="geometry">
            <mxPoint x="219.75" y="280" as="sourcePoint" />
            <mxPoint x="219.75" y="320" as="targetPoint" />
          </mxGeometry>
        </mxCell>
        <mxCell id="YKM-TjGu_FODjCgSOmCp-4" value="Próba zapisu zmian" style="rounded=1;whiteSpace=wrap;html=1;fontSize=12;glass=0;strokeWidth=1;shadow=0;" vertex="1" parent="WIyWlLk6GJQsqaUBKTNV-1">
          <mxGeometry x="160" y="400" width="120" height="40" as="geometry" />
        </mxCell>
        <mxCell id="YKM-TjGu_FODjCgSOmCp-5" value="" style="rounded=0;html=1;jettySize=auto;orthogonalLoop=1;fontSize=11;endArrow=block;endFill=0;endSize=8;strokeWidth=1;shadow=0;labelBackgroundColor=none;edgeStyle=orthogonalEdgeStyle;entryX=0.5;entryY=0;entryDx=0;entryDy=0;exitX=0.5;exitY=1;exitDx=0;exitDy=0;" edge="1" parent="WIyWlLk6GJQsqaUBKTNV-1">
          <mxGeometry relative="1" as="geometry">
            <mxPoint x="219.75" y="360" as="sourcePoint" />
            <mxPoint x="219.75" y="400" as="targetPoint" />
          </mxGeometry>
        </mxCell>
        <mxCell id="YKM-TjGu_FODjCgSOmCp-6" value="" style="rounded=0;html=1;jettySize=auto;orthogonalLoop=1;fontSize=11;endArrow=block;endFill=0;endSize=8;strokeWidth=1;shadow=0;labelBackgroundColor=none;edgeStyle=orthogonalEdgeStyle;entryX=0.5;entryY=0;entryDx=0;entryDy=0;exitX=0.5;exitY=1;exitDx=0;exitDy=0;" edge="1" parent="WIyWlLk6GJQsqaUBKTNV-1" target="WIyWlLk6GJQsqaUBKTNV-6">
          <mxGeometry relative="1" as="geometry">
            <mxPoint x="224.72" y="440" as="sourcePoint" />
            <mxPoint x="224.72" y="480" as="targetPoint" />
          </mxGeometry>
        </mxCell>
        <mxCell id="YKM-TjGu_FODjCgSOmCp-7" value="Aktualizacja wersji pliku w systemie" style="rounded=1;whiteSpace=wrap;html=1;fontSize=12;glass=0;strokeWidth=1;shadow=0;" vertex="1" parent="WIyWlLk6GJQsqaUBKTNV-1">
          <mxGeometry x="10" y="710" width="120" height="40" as="geometry" />
        </mxCell>
        <mxCell id="YKM-TjGu_FODjCgSOmCp-12" value="Czy porzucić wprowadzone zmiany w pliku ?" style="rhombus;whiteSpace=wrap;html=1;shadow=0;fontFamily=Helvetica;fontSize=12;align=center;strokeWidth=1;spacing=6;spacingTop=-4;" vertex="1" parent="WIyWlLk6GJQsqaUBKTNV-1">
          <mxGeometry x="315" y="590" width="130" height="100" as="geometry" />
        </mxCell>
        <mxCell id="YKM-TjGu_FODjCgSOmCp-13" value="" style="rounded=0;html=1;jettySize=auto;orthogonalLoop=1;fontSize=11;endArrow=block;endFill=0;endSize=8;strokeWidth=1;shadow=0;labelBackgroundColor=none;edgeStyle=orthogonalEdgeStyle;exitX=0;exitY=0.5;exitDx=0;exitDy=0;entryX=0.5;entryY=0;entryDx=0;entryDy=0;" edge="1" parent="WIyWlLk6GJQsqaUBKTNV-1">
          <mxGeometry x="-1" y="-85" relative="1" as="geometry">
            <mxPoint x="25" y="-60" as="offset" />
            <mxPoint x="380" y="590" as="targetPoint" />
            <mxPoint x="310" y="550" as="sourcePoint" />
          </mxGeometry>
        </mxCell>
        <mxCell id="YKM-TjGu_FODjCgSOmCp-14" value="NIE" style="edgeLabel;html=1;align=center;verticalAlign=middle;resizable=0;points=[];" vertex="1" connectable="0" parent="YKM-TjGu_FODjCgSOmCp-13">
          <mxGeometry x="-0.532" relative="1" as="geometry">
            <mxPoint as="offset" />
          </mxGeometry>
        </mxCell>
        <mxCell id="YKM-TjGu_FODjCgSOmCp-15" value="" style="rounded=0;html=1;jettySize=auto;orthogonalLoop=1;fontSize=11;endArrow=block;endFill=0;endSize=8;strokeWidth=1;shadow=0;labelBackgroundColor=none;edgeStyle=orthogonalEdgeStyle;exitX=0;exitY=0.5;exitDx=0;exitDy=0;" edge="1" parent="WIyWlLk6GJQsqaUBKTNV-1">
          <mxGeometry x="-1" y="-85" relative="1" as="geometry">
            <mxPoint x="25" y="-60" as="offset" />
            <mxPoint x="250" y="980" as="targetPoint" />
            <mxPoint x="315" y="640" as="sourcePoint" />
            <Array as="points">
              <mxPoint x="250" y="640" />
            </Array>
          </mxGeometry>
        </mxCell>
        <mxCell id="YKM-TjGu_FODjCgSOmCp-16" value="TAK" style="edgeLabel;html=1;align=center;verticalAlign=middle;resizable=0;points=[];" vertex="1" connectable="0" parent="YKM-TjGu_FODjCgSOmCp-15">
          <mxGeometry x="-0.532" relative="1" as="geometry">
            <mxPoint as="offset" />
          </mxGeometry>
        </mxCell>
        <mxCell id="YKM-TjGu_FODjCgSOmCp-17" value="" style="rounded=0;html=1;jettySize=auto;orthogonalLoop=1;fontSize=11;endArrow=block;endFill=0;endSize=8;strokeWidth=1;shadow=0;labelBackgroundColor=none;edgeStyle=orthogonalEdgeStyle;exitX=0;exitY=0.5;exitDx=0;exitDy=0;entryX=0.5;entryY=0;entryDx=0;entryDy=0;" edge="1" parent="WIyWlLk6GJQsqaUBKTNV-1">
          <mxGeometry x="-1" y="-85" relative="1" as="geometry">
            <mxPoint x="25" y="-60" as="offset" />
            <mxPoint x="515" y="680" as="targetPoint" />
            <mxPoint x="445" y="640" as="sourcePoint" />
          </mxGeometry>
        </mxCell>
        <mxCell id="YKM-TjGu_FODjCgSOmCp-18" value="NIE" style="edgeLabel;html=1;align=center;verticalAlign=middle;resizable=0;points=[];" vertex="1" connectable="0" parent="YKM-TjGu_FODjCgSOmCp-17">
          <mxGeometry x="-0.532" relative="1" as="geometry">
            <mxPoint as="offset" />
          </mxGeometry>
        </mxCell>
        <mxCell id="YKM-TjGu_FODjCgSOmCp-19" value="Użytkownik wprowadza zmiany w pliku" style="rounded=1;whiteSpace=wrap;html=1;fontSize=12;glass=0;strokeWidth=1;shadow=0;" vertex="1" parent="WIyWlLk6GJQsqaUBKTNV-1">
          <mxGeometry x="460" y="770" width="120" height="50" as="geometry" />
        </mxCell>
        <mxCell id="YKM-TjGu_FODjCgSOmCp-20" value="" style="rounded=0;html=1;jettySize=auto;orthogonalLoop=1;fontSize=11;endArrow=block;endFill=0;endSize=8;strokeWidth=1;shadow=0;labelBackgroundColor=none;edgeStyle=orthogonalEdgeStyle;entryX=0.5;entryY=0;entryDx=0;entryDy=0;exitX=0.5;exitY=1;exitDx=0;exitDy=0;" edge="1" parent="WIyWlLk6GJQsqaUBKTNV-1">
          <mxGeometry relative="1" as="geometry">
            <mxPoint x="519.6" y="730" as="sourcePoint" />
            <mxPoint x="519.88" y="770" as="targetPoint" />
          </mxGeometry>
        </mxCell>
        <mxCell id="YKM-TjGu_FODjCgSOmCp-21" value="Zmiany zostają zapisane" style="rounded=1;whiteSpace=wrap;html=1;fontSize=12;glass=0;strokeWidth=1;shadow=0;" vertex="1" parent="WIyWlLk6GJQsqaUBKTNV-1">
          <mxGeometry x="460" y="860" width="120" height="40" as="geometry" />
        </mxCell>
        <mxCell id="YKM-TjGu_FODjCgSOmCp-22" value="" style="rounded=0;html=1;jettySize=auto;orthogonalLoop=1;fontSize=11;endArrow=block;endFill=0;endSize=8;strokeWidth=1;shadow=0;labelBackgroundColor=none;edgeStyle=orthogonalEdgeStyle;exitX=0.5;exitY=1;exitDx=0;exitDy=0;" edge="1" parent="WIyWlLk6GJQsqaUBKTNV-1" source="YKM-TjGu_FODjCgSOmCp-21">
          <mxGeometry x="-1" y="-85" relative="1" as="geometry">
            <mxPoint x="25" y="-60" as="offset" />
            <mxPoint x="370" y="930" as="sourcePoint" />
            <mxPoint x="520" y="940" as="targetPoint" />
          </mxGeometry>
        </mxCell>
        <mxCell id="YKM-TjGu_FODjCgSOmCp-23" value="Aktualizacja wersji pliku w systemie" style="rounded=1;whiteSpace=wrap;html=1;fontSize=12;glass=0;strokeWidth=1;shadow=0;" vertex="1" parent="WIyWlLk6GJQsqaUBKTNV-1">
          <mxGeometry x="460" y="940" width="120" height="40" as="geometry" />
        </mxCell>
        <mxCell id="YKM-TjGu_FODjCgSOmCp-24" value="" style="rounded=0;html=1;jettySize=auto;orthogonalLoop=1;fontSize=11;endArrow=block;endFill=0;endSize=8;strokeWidth=1;shadow=0;labelBackgroundColor=none;edgeStyle=orthogonalEdgeStyle;exitX=0.5;exitY=1;exitDx=0;exitDy=0;" edge="1" parent="WIyWlLk6GJQsqaUBKTNV-1">
          <mxGeometry x="-1" y="-85" relative="1" as="geometry">
            <mxPoint x="25" y="-60" as="offset" />
            <mxPoint x="519.75" y="820" as="sourcePoint" />
            <mxPoint x="519.75" y="860" as="targetPoint" />
          </mxGeometry>
        </mxCell>
        <mxCell id="YKM-TjGu_FODjCgSOmCp-25" value="Czy użytkownik &lt;br&gt;chce edytować &lt;br&gt;kolejny plik?" style="rhombus;whiteSpace=wrap;html=1;shadow=0;fontFamily=Helvetica;fontSize=12;align=center;strokeWidth=1;spacing=6;spacingTop=-4;" vertex="1" parent="WIyWlLk6GJQsqaUBKTNV-1">
          <mxGeometry x="168.97" y="980" width="161.03" height="120" as="geometry" />
        </mxCell>
        <mxCell id="YKM-TjGu_FODjCgSOmCp-26" value="" style="rounded=0;html=1;jettySize=auto;orthogonalLoop=1;fontSize=11;endArrow=block;endFill=0;endSize=8;strokeWidth=1;shadow=0;labelBackgroundColor=none;edgeStyle=orthogonalEdgeStyle;" edge="1" parent="WIyWlLk6GJQsqaUBKTNV-1">
          <mxGeometry x="-1" y="-85" relative="1" as="geometry">
            <mxPoint x="25" y="-60" as="offset" />
            <mxPoint x="399.5" y="1140" as="targetPoint" />
            <mxPoint x="329" y="1040" as="sourcePoint" />
            <Array as="points">
              <mxPoint x="329" y="1040" />
              <mxPoint x="400" y="1040" />
            </Array>
          </mxGeometry>
        </mxCell>
        <mxCell id="YKM-TjGu_FODjCgSOmCp-27" value="NIE" style="edgeLabel;html=1;align=center;verticalAlign=middle;resizable=0;points=[];" vertex="1" connectable="0" parent="YKM-TjGu_FODjCgSOmCp-26">
          <mxGeometry x="-0.532" relative="1" as="geometry">
            <mxPoint as="offset" />
          </mxGeometry>
        </mxCell>
        <mxCell id="YKM-TjGu_FODjCgSOmCp-28" value="" style="rounded=0;html=1;jettySize=auto;orthogonalLoop=1;fontSize=11;endArrow=block;endFill=0;endSize=8;strokeWidth=1;shadow=0;labelBackgroundColor=none;edgeStyle=orthogonalEdgeStyle;exitX=0;exitY=0.5;exitDx=0;exitDy=0;entryX=0;entryY=0.5;entryDx=0;entryDy=0;" edge="1" parent="WIyWlLk6GJQsqaUBKTNV-1" source="YKM-TjGu_FODjCgSOmCp-25" target="-VE9CdMXzi8puVVyXun2-27">
          <mxGeometry x="-1" y="-85" relative="1" as="geometry">
            <mxPoint x="25" y="-60" as="offset" />
            <mxPoint x="85" y="1020" as="targetPoint" />
            <mxPoint x="155" y="910" as="sourcePoint" />
            <Array as="points">
              <mxPoint x="155" y="1040" />
              <mxPoint x="155" y="840" />
              <mxPoint x="-50" y="840" />
              <mxPoint x="-50" y="260" />
            </Array>
          </mxGeometry>
        </mxCell>
        <mxCell id="YKM-TjGu_FODjCgSOmCp-29" value="TAK" style="edgeLabel;html=1;align=center;verticalAlign=middle;resizable=0;points=[];" vertex="1" connectable="0" parent="YKM-TjGu_FODjCgSOmCp-28">
          <mxGeometry x="-0.532" relative="1" as="geometry">
            <mxPoint as="offset" />
          </mxGeometry>
        </mxCell>
        <mxCell id="YKM-TjGu_FODjCgSOmCp-32" value="" style="endArrow=none;html=1;rounded=0;exitX=1;exitY=0.5;exitDx=0;exitDy=0;" edge="1" parent="WIyWlLk6GJQsqaUBKTNV-1" source="YKM-TjGu_FODjCgSOmCp-7">
          <mxGeometry width="50" height="50" relative="1" as="geometry">
            <mxPoint x="250" y="810" as="sourcePoint" />
            <mxPoint x="250" y="730" as="targetPoint" />
          </mxGeometry>
        </mxCell>
        <mxCell id="YKM-TjGu_FODjCgSOmCp-33" value="Wyjście z magazynu" style="rounded=1;whiteSpace=wrap;html=1;fontSize=12;glass=0;strokeWidth=1;shadow=0;" vertex="1" parent="WIyWlLk6GJQsqaUBKTNV-1">
          <mxGeometry x="340" y="1140" width="120" height="40" as="geometry" />
        </mxCell>
        <mxCell id="YKM-TjGu_FODjCgSOmCp-34" value="Koniec" style="rounded=1;whiteSpace=wrap;html=1;fontSize=12;glass=0;strokeWidth=1;shadow=0;" vertex="1" parent="WIyWlLk6GJQsqaUBKTNV-1">
          <mxGeometry x="340" y="1220" width="120" height="40" as="geometry" />
        </mxCell>
        <mxCell id="YKM-TjGu_FODjCgSOmCp-35" value="" style="rounded=0;html=1;jettySize=auto;orthogonalLoop=1;fontSize=11;endArrow=block;endFill=0;endSize=8;strokeWidth=1;shadow=0;labelBackgroundColor=none;edgeStyle=orthogonalEdgeStyle;exitX=0.5;exitY=1;exitDx=0;exitDy=0;entryX=0.5;entryY=0;entryDx=0;entryDy=0;" edge="1" parent="WIyWlLk6GJQsqaUBKTNV-1" target="YKM-TjGu_FODjCgSOmCp-34">
          <mxGeometry x="-1" y="-85" relative="1" as="geometry">
            <mxPoint x="25" y="-60" as="offset" />
            <mxPoint x="400" y="1180" as="sourcePoint" />
            <mxPoint x="625" y="1085" as="targetPoint" />
          </mxGeometry>
        </mxCell>
        <mxCell id="YKM-TjGu_FODjCgSOmCp-36" value="" style="endArrow=none;html=1;rounded=0;" edge="1" parent="WIyWlLk6GJQsqaUBKTNV-1">
          <mxGeometry width="50" height="50" relative="1" as="geometry">
            <mxPoint x="250" y="960" as="sourcePoint" />
            <mxPoint x="460" y="959.71" as="targetPoint" />
          </mxGeometry>
        </mxCell>
      </root>
    </mxGraphModel>
  </diagram>
</mxfile>
